<svg xmlns="http://www.w3.org/2000/svg" width="98" height="70" viewBox="0 0 97 70" fill="currentColor" fill-rule="nonzero">
    <path d="M16.875 57v.707h-2.95v-5.195h.829V57Zm11.89-1.89c0 .386-.058.742-.183 1.066a2.53 2.53 0 0 1-.516.84c-.23.234-.503.422-.808.55-.332.133-.684.2-1.043.196a2.645 2.645 0 0 1-1.04-.2 2.33 2.33 0 0 1-.804-.55 2.354 2.354 0 0 1-.52-.836 2.923 2.923 0 0 1-.187-1.067c0-.382.063-.738.188-1.062a2.399 2.399 0 0 1 1.324-1.395 2.722 2.722 0 0 1 1.043-.199c.383 0 .726.067 1.039.2.312.136.582.316.808.554.223.234.395.516.516.84.121.324.184.68.184 1.062Zm-.847 0a2.6 2.6 0 0 0-.117-.805 1.782 1.782 0 0 0-.34-.606 1.483 1.483 0 0 0-.535-.383 1.782 1.782 0 0 0-.711-.132 1.79 1.79 0 0 0-.703.132c-.207.086-.39.215-.54.383a1.67 1.67 0 0 0-.343.606 2.486 2.486 0 0 0-.121.804c0 .301.039.57.12.809.071.223.188.43.345.605.148.164.328.29.539.38.21.09.445.128.703.128.262 0 .5-.043.71-.129a1.5 1.5 0 0 0 .536-.379 1.7 1.7 0 0 0 .34-.605c.078-.238.117-.504.117-.809Zm10.129.562v2.035h-.828v-2.035l-1.864-3.16h.727c.07 0 .129.02.172.054.047.04.082.086.11.137l1.042 1.863a4.431 4.431 0 0 1 .235.516 2.669 2.669 0 0 1 .223-.516l1.038-1.863a.401.401 0 0 1 .102-.129.252.252 0 0 1 .172-.062h.73Zm12.793 2.035h-.64a.24.24 0 0 1-.177-.059.294.294 0 0 1-.101-.136l-.426-1.149h-2.195l-.426 1.149a.284.284 0 0 1-.102.133.255.255 0 0 1-.175.062h-.641l2.023-5.195h.84Zm-1.567-1.95-.699-1.894a4.691 4.691 0 0 1-.176-.562 4.088 4.088 0 0 1-.171.562l-.7 1.89h1.746ZM60.977 57v.707H58.03v-5.195h.828V57Zm10.168-3.781h-1.59v4.492h-.828v-4.492h-1.594v-.707h4.012Zm9.363 2.453v2.035h-.828v-2.035l-1.864-3.16h.727a.27.27 0 0 1 .176.054c.043.04.082.086.105.137l1.047 1.863c.047.094.09.18.129.266.04.082.07.168.102.25a1.9 1.9 0 0 1 .097-.25c.04-.086.078-.172.13-.266l1.034-1.863a.549.549 0 0 1 .102-.129.27.27 0 0 1 .176-.062h.73ZM21.156 25.016l-1.445-5.817-1.465 5.817h-2.754l-2.933-9.121h2.855l1.547 6.308 1.504-6.297 2.613-.011 1.543 6.308 1.504-6.308h2.742l-2.96 9.12Zm18.7 0v-3.399h-3.204v3.399h-2.675v-9.121h2.675v3.628h3.203v-3.628h2.68v9.12Zm10.624 0v-9.121h2.68v9.12Zm15.247-6.961v6.96h-2.692v-6.96h-2.61v-2.16h7.923v2.16Zm12.566-.082v1.433h4.258v2.082h-4.258v1.442h4.82v2.082h-7.5v-9.117h7.371v2.078Zm0 0"/>
    <path d="M96.64 69.484H.364V.34h96.278ZM3.22 66.605h90.566V3.227H3.22Zm0 0"/>
    <path d="M20.453 42.031v2.282h-6.535v-9.188h2.707v6.906Zm9.918.813-.547 1.468H27.04l3.89-9.187h2.79l3.761 9.188h-2.89l-.535-1.47Zm1.875-4.996-1.117 3h2.21Zm16.883-2.723c2.137 0 3.504.902 3.504 2.316 0 .934-.602 1.704-1.551 1.98 1.121.24 1.836 1.153 1.836 2.321 0 1.57-1.406 2.567-3.594 2.567h-4.672V35.12h4.477Zm-1.785 3.602h1.64c.536 0 .871-.313.871-.797 0-.473-.335-.762-.87-.762h-1.641Zm0 3.55h1.64c.692 0 1.121-.34 1.121-.875 0-.5-.43-.812-1.12-.812h-1.641Zm15.894-5.058v1.441h4.309v2.098h-4.309v1.453h4.88v2.098h-7.59V35.12h7.46v2.098Zm19.227 4.812v2.282H75.93v-9.188h2.707v6.906Zm0 0"/>
</svg>
